<svg xmlns="http://www.w3.org/2000/svg" viewBox="0 0 584 577.95"><path fill="#ebebeb" d="M87 363a13 13 0 0 1 2.91-7.26 12.65 12.65 0 0 1 6.27-4.39 10.29 10.29 0 0 1 8 1.07 10 10 0 0 1 3.42 3.45 10.11 10.11 0 0 1 10.59-5.43 12.54 12.54 0 0 1 6.75 3.62 13 13 0 0 1 3.75 6.84 15.81 15.81 0 0 1-1.39 9.85 22.68 22.68 0 0 1-7.26 7.67c-4.86 3.33-11.26 7.51-11.26 7.51s-5.84-3.85-11.06-6.58a22.37 22.37 0 0 1-8.13-6.76A15.83 15.83 0 0 1 87 363ZM451.33 218.59a13.11 13.11 0 0 1 2.92-7.26 12.64 12.64 0 0 1 6.26-4.39 10.29 10.29 0 0 1 8 1.07 10.11 10.11 0 0 1 3.43 3.45 10.1 10.1 0 0 1 2.81-3.42 10.23 10.23 0 0 1 7.78-2 12.48 12.48 0 0 1 6.74 3.62 12.85 12.85 0 0 1 3.75 6.85 15.85 15.85 0 0 1-1.38 9.84 22.43 22.43 0 0 1-7.27 7.67c-4.85 3.33-11.25 7.51-11.25 7.51s-5.89-3.86-11.12-6.53a22.37 22.37 0 0 1-8.13-6.76 15.93 15.93 0 0 1-2.54-9.61Z"/><path fill="#f5f5f5" d="M122.39 330.49a8.36 8.36 0 0 1 1.86-4.65 8 8 0 0 1 4-2.82 6.54 6.54 0 0 1 5.11.69 6.85 6.85 0 0 1 2.24 2.29 6.48 6.48 0 0 1 6.8-3.49 8 8 0 0 1 4.33 2.33 8.36 8.36 0 0 1 2.4 4.4 10.11 10.11 0 0 1-.89 6.31 14.47 14.47 0 0 1-4.66 4.93c-3.12 2.14-7.23 4.82-7.23 4.82s-3.75-2.47-7.1-4.23a14.64 14.64 0 0 1-5.26-4.37 10.2 10.2 0 0 1-1.63-6.17ZM429 250.6a8.3 8.3 0 0 1 1.87-4.66 8.14 8.14 0 0 1 4-2.82 6.49 6.49 0 0 1 7.32 2.9 6.36 6.36 0 0 1 1.8-2.19 6.64 6.64 0 0 1 5-1.3 8 8 0 0 1 4.32 2.33 8.27 8.27 0 0 1 2.41 4.4 10.11 10.11 0 0 1-.89 6.31 14.4 14.4 0 0 1-4.67 4.93c-3.11 2.15-7.22 4.83-7.22 4.83s-3.76-2.48-7.1-4.24a14.43 14.43 0 0 1-5.22-4.34 10.2 10.2 0 0 1-1.63-6.17Z"/><path fill="#ebebeb" d="M495.05 316.65a8.27 8.27 0 0 1 1.87-4.65 8 8 0 0 1 4-2.82 6.54 6.54 0 0 1 5.11.69 6.67 6.67 0 0 1 2.21 2.21 6.46 6.46 0 0 1 6.8-3.49 8 8 0 0 1 4.36 2.41 8.39 8.39 0 0 1 2.4 4.41 10.11 10.11 0 0 1-.89 6.31 14.4 14.4 0 0 1-4.67 4.93c-3.11 2.14-7.22 4.82-7.22 4.82s-3.76-2.47-7.1-4.23a14.43 14.43 0 0 1-5.22-4.34 10.2 10.2 0 0 1-1.63-6.17Z"/><path fill="#f5f5f5" d="M131.08 384.67a5.61 5.61 0 0 1 1.23-3.07 5.31 5.31 0 0 1 2.65-1.86 4.4 4.4 0 0 1 3.38.46 4.22 4.22 0 0 1 1.45 1.46 4.27 4.27 0 0 1 4.48-2.3 5.26 5.26 0 0 1 2.85 1.53 5.54 5.54 0 0 1 1.6 2.9 6.81 6.81 0 0 1-.59 4.17 9.73 9.73 0 0 1-3.09 3.26c-2 1.41-4.77 3.19-4.77 3.19s-2.48-1.64-4.68-2.8a9.54 9.54 0 0 1-3.44-2.86 6.73 6.73 0 0 1-1.07-4.07Z"/><path fill="#ebebeb" d="M60.33 68.41s-6 5.19 7.06 17.27 21.06 17.5 21.06 17.5 2.61 3-.09 4.56-9.49 3-9.47 7 4 6.68 10.54 7.72 20.85 3.87 22.14 4.13 2.91 1.48 1.23 2.88-15.51 8.21-11.88 14.59 22.38 6.28 24.43 6.32 2.76.63 3 1.67-4.65 2.89-8.51 5-8 5.21-5.55 8.71 15.19 8 39.83 1.56l11.22-3.74 2.55-11.58c4-25.15-1.72-37.43-5.45-39.49s-6.42 2.34-8.13 6.4-3.08 9.07-4.13 9-1.73-.76-2-2.8-2-20.7-8.68-23.69-12.13 11.44-13.35 13.25-2.6.3-3-.94-4.59-15.2-6.28-21.62-4.54-10.13-8.72-9.74c-4 .38-4.69 7.26-6 10.1s-4.54.54-4.54.54-6.18-7.41-19.48-19.24-18-5.15-18-5.15"/><path fill="#e0e0e0" d="M166.85 166c-9.73-8.73-26.76-24.53-41.46-38s-28-25.68-37.68-34.47L76.23 83.08l-3.13-2.83-.81-.74-.26-.26.29.23.82.72 3.17 2.8c2.74 2.44 6.69 6 11.55 10.32 9.73 8.73 23.08 20.9 37.77 34.39S157.33 157 167 165.76"/><path fill="#e0e0e0" d="M88.45 113.23a8.12 8.12 0 0 1 .85-.07h2.33c2 0 4.68.07 7.67.19l7.66.35 2.33.09a3.45 3.45 0 0 1 .85.07 4 4 0 0 1-.85.07H107c-2 0-4.68-.12-7.67-.23l-7.66-.29-2.33-.08a3.45 3.45 0 0 1-.85-.08ZM110.64 112.82c-.11 0-.23-5.59-.27-12.5s0-12.51.12-12.51.22 5.59.26 12.51 0 12.5-.11 12.5ZM132.27 134.56a2.77 2.77 0 0 1 .2-.85c.2-.54.39-1.37.65-2.29a170.46 170.46 0 0 0 3.66-15.21l.46-2.33a4.22 4.22 0 0 1 .21-.85 4.35 4.35 0 0 1-.07.88 103.83 103.83 0 0 1-1.92 10.04c-.73 2.98-1.5 5.64-2.1 7.55-.32 1-.57 1.73-.76 2.25a5.77 5.77 0 0 1-.34.81ZM112.28 139.34a6.81 6.81 0 0 1 .76-.26c.57-.15 1.28-.37 2.12-.59a629.54 629.54 0 0 1 14-3.55c.85-.2 1.55-.36 2.14-.48a4.32 4.32 0 0 1 .8-.14 3 3 0 0 1-.76.26c-.58.16-1.28.37-2.12.59a583.29 583.29 0 0 1-14 3.56l-2.14.48a3.11 3.11 0 0 1-.8.13ZM129 161a9 9 0 0 1 1-.33l2.7-.77a663.53 663.53 0 0 1 18-4.73l2.73-.66a5.69 5.69 0 0 1 1-.19 5.86 5.86 0 0 1-1 .33 575.9 575.9 0 0 1-11.71 3.19 857 857 0 0 1-9 2.31l-2.73.65a6.68 6.68 0 0 1-.99.2ZM153.66 154.27s.05-.39.22-1.09l.72-2.92a305.4 305.4 0 0 0 4.13-19.43l.53-3a6.85 6.85 0 0 1 .24-1.09 5.06 5.06 0 0 1-.09 1.1 186.82 186.82 0 0 1-2.21 12.78 165.96 165.96 0 0 1-3.18 12.56 6 6 0 0 1-.36 1Z"/><path fill="#f5f5f5" d="M429.64 141.16c-17.43-15.2-19.08-40.1-16-62 .52-3.66.53-7.57 2.62-10.59s6.4-4.78 9.52-2.88c2.59 1.58 3.42 4.87 4.67 7.65a21.61 21.61 0 0 0 7.71 9.14c2.21 1.46 5 2.51 7.45 1.49 3.35-1.4 4.2-5.74 4.56-9.38q1.05-10.2 2.07-20.41c.36-3.64.76-7.37 2.27-10.71s4.37-6.29 7.94-6.89 7.65 1.87 8 5.51a34.77 34.77 0 0 1-.39 4.55c-.07 1.53.45 3.28 1.85 3.86s3-.29 4.19-1.24c4.15-3.28 7.23-7.75 10.12-12.21s5.73-9 9.58-12.69 8.91-6.36 14.2-6.05 10.47 4.09 11.24 9.35-2.8 10.19-6.51 14A81.55 81.55 0 0 1 496.05 56a6.79 6.79 0 0 0-3.17 2.75c-1.05 2.34 1 5 3.31 6.06 2.63 1.21 5.6 1.23 8.41 1.87s5.75 2.22 6.53 5c1.1 3.9-2.44 7.47-5.79 9.69A70 70 0 0 1 483.42 91c-2.79.7-5.7 1.26-8.07 2.91s-4 4.78-3 7.5 4.3 3.89 7.16 3.67 5.55-1.48 8.33-2.19c5.22-1.35 11.65-.32 14.39 4.36 1.81 3.07 1.56 7.06.13 10.34a26.68 26.68 0 0 1-6.49 8.42 70.89 70.89 0 0 1-32.21 17.81c-12.05 2.81-23 2.71-34.06-2.76"/><path fill="#e0e0e0" d="M436.8 128a332.67 332.67 0 0 1 16.76-33.79l4.85-8.62c1.59-2.83 3.18-5.64 4.9-8.29a162.07 162.07 0 0 1 10.76-14.65c3.65-4.5 7.27-8.63 10.68-12.47s6.7-7.35 9.79-10.42a131.47 131.47 0 0 1 15.74-13.41c2-1.44 3.55-2.49 4.62-3.2l1.23-.8a2.3 2.3 0 0 1 .43-.25s-.13.12-.39.32-.7.49-1.19.85c-1 .74-2.59 1.83-4.54 3.29a139.94 139.94 0 0 0-15.56 13.53 364.03 364.03 0 0 0-20.34 22.94 166 166 0 0 0-10.68 14.61c-1.71 2.64-3.27 5.42-4.88 8.26l-4.84 8.63a340.94 340.94 0 0 0-16.79 33.69"/><path fill="#e0e0e0" d="M463.51 77.3a14.24 14.24 0 0 1-.18-1.6c-.08-1-.16-2.52-.21-4.36C463 67.65 463 62.56 463 57s-.05-10.71-.22-14.38c-.09-1.84-.17-3.32-.24-4.35a10.82 10.82 0 0 1 0-1.61 6.48 6.48 0 0 1 .29 1.58c.16 1 .32 2.51.46 4.35.3 3.69.44 8.79.43 14.41s-.07 10.56-.09 14.39v4.31a6.67 6.67 0 0 1-.08 1.61Z"/><path fill="#e0e0e0" d="M511.34 73.59h-1.89c-1.21 0-3-.06-5.15 0-4.34 0-10.36.21-17 .73s-12.57 1.27-16.88 1.94c-2.15.31-3.88.61-5.08.81a9.23 9.23 0 0 1-1.88.25 8.29 8.29 0 0 1 1.83-.51c1.19-.28 2.91-.66 5.06-1a179.6 179.6 0 0 1 16.9-2.13 169.17 169.17 0 0 1 17-.53c2.18 0 3.93.15 5.15.26a9 9 0 0 1 1.94.18ZM437.47 127.2q-.15-.3-.27-.6l-.61-1.78c-.54-1.55-1.24-3.81-2.08-6.62-1.68-5.63-3.76-13.45-5.95-22.12s-4.18-16.51-5.75-22.08L421 67.27l-.49-1.82a2.09 2.09 0 0 1-.13-.65 2.73 2.73 0 0 1 .26.61l.61 1.78c.54 1.55 1.24 3.82 2.08 6.63 1.73 5.6 3.73 13.43 6 22.13s4.18 16.51 5.75 22.15l1.87 6.68.5 1.82a2.88 2.88 0 0 1 .13.65Z"/><path fill="#e0e0e0" d="M502 113.83a3.58 3.58 0 0 1-.64.18l-1.87.41-6.9 1.44c-5.83 1.21-13.87 3-22.74 5s-17 3.69-22.8 4.79c-2.93.55-5.31 1-7 1.23l-1.89.28a2.51 2.51 0 0 1-.67 0 2.34 2.34 0 0 1 .64-.18c.51-.1 1.12-.25 1.87-.4 1.72-.37 4.06-.85 6.9-1.44 5.83-1.22 13.87-3 22.75-5s16.93-3.69 22.78-4.79c2.93-.54 5.31-1 7-1.22l1.89-.29a2.51 2.51 0 0 1 .67 0Z"/><path d="M584 567.83c0 .19-130.74.34-292 .34S0 568 0 567.83s130.71-.34 292-.34 292 .16 292 .34Z"/><path fill="red" fill-opacity=".75" d="M377.89 251.05q1.11-18.11 2.18-36.31c.09-1.45.31-3.14 1.56-3.89s2.58-.22 3.79.26c21.47 8.63 37.21 32.57 39.09 55.63"/><path fill="#fff" d="M385.18 223.37a39 39 0 0 1 17.53 29.89 5.89 5.89 0 0 1-.88 4.17 4.28 4.28 0 0 1-3.2 1.4 12.88 12.88 0 0 1-3.54-.55c-2.91-.74-6-1.55-8.1-3.65a11.62 11.62 0 0 1-3.13-7.66 35.46 35.46 0 0 1 .86-8.4c1.21 2.08 2.43 4.17 3.66 6.25l-3.91-20.25a1.29 1.29 0 0 1 .11-1.07c.23-.29.85-.2.81.18" opacity=".3"/><path fill="red" fill-opacity=".75" d="M253.46 276.84a78 78 0 0 1-18.37-47.34l12 5.63-3-3.63a67.2 67.2 0 0 1 45.22 22.83"/><path fill="#fff" d="M260.07 271.55a42.41 42.41 0 0 1-17.15-29.06c-.09-.8 0-1.81.72-2.09a1.87 1.87 0 0 1 1.54.43L266.76 255a9.72 9.72 0 0 1-1.7-4.54q4.56 3.34 9.12 6.72a3.08 3.08 0 0 1 1.45 1.81 2.75 2.75 0 0 1-1.11 2.21 11.91 11.91 0 0 1-11.44 2.54l4 3.41a10.3 10.3 0 0 1-8 1.37 3.25 3.25 0 0 0 1.43 3.41" opacity=".3"/><path fill="red" fill-opacity=".75" d="M497.26 390.89s16.74 17.3 24.34 15.86c0 0-26.42-28.12-37.53-54.06a242.08 242.08 0 0 0-18.91-35.28c5-8.63 9.46-18.39 11.51-28.27a104.52 104.52 0 0 1-19.07 17.25c-.59-.8-1.16-1.61-1.76-2.4 5-4.81 9.87-11.56 11.19-20.39l-26.44-1.14a28 28 0 0 0 2.24-3.72s-16.68-15.39-43.19-27.35c-30.38-17.29-98-23-131 5.13-29.5 17.2-37.42 39.18-60.66 44.66l-13.78-1.52s-5.36 28.74 12.25 41.6l-13-3s2.41 11.44 15.26 24.06l-8-1s3.48 18 14.59 22.35c0 0-17.36 2.16-22.22-4.32 0 0-5.78 26.91 20.52 37.08 0 0-78.77 9.22-56.63 105.63 5.18 22.52 36.28 38.74 72 46.56l257.48-1c15.71-5.11 34.43-57.09 35.12-78s-9.73-61.27-9.73-61.27l9.75 13L497.25 391Z"/><path fill="red" fill-opacity=".75" d="M202.9 431.07c-14.78-.89-29.3 10.6-31.84 25.2a73.72 73.72 0 0 1 32.07-11.71 30.24 30.24 0 0 0-7.62 33.44 40.25 40.25 0 0 1 21.85-22.86 31.14 31.14 0 0 0-5.44 30"/><path d="M212 485.22s-.08-.17-.21-.53-.33-.87-.52-1.58a29.08 29.08 0 0 1-1.08-6.28 31.79 31.79 0 0 1 1-10 30.62 30.62 0 0 1 6-11.78l.3.4a40.17 40.17 0 0 0-21.64 22.74l-.29.77-.33-.75a30.72 30.72 0 0 1 1-24.89 29.34 29.34 0 0 1 6.74-9l.26.59a74.13 74.13 0 0 0-32 11.62l-.57.38.12-.67a29.45 29.45 0 0 1 3.26-9 30.58 30.58 0 0 1 5.22-6.86 32 32 0 0 1 11.74-7.53 29.39 29.39 0 0 1 8.78-1.83c1-.06 1.83 0 2.37 0-.54 0-1.32 0-2.35.07a30.46 30.46 0 0 0-8.67 2 32 32 0 0 0-11.47 7.57 29.76 29.76 0 0 0-5.08 6.78 28.9 28.9 0 0 0-3.17 8.83L171 456a73.9 73.9 0 0 1 32.2-11.8l1.06-.12-.8.7a29 29 0 0 0-6.58 8.77 30.18 30.18 0 0 0-1 24.34h-.61a40.66 40.66 0 0 1 22.07-23l1-.41-.69.82a30.56 30.56 0 0 0-6.08 11.7 31.38 31.38 0 0 0-1.11 9.88 33.31 33.31 0 0 0 .93 6.27c.18.71.35 1.23.45 1.59a2.1 2.1 0 0 1 .13.55Z"/><path fill="red" fill-opacity=".75" d="M472.83 471.64a35.46 35.46 0 0 1 39.85 20.44"/><path d="M512.69 492.08c-.13.07-1.14-2.48-3.7-6a35.85 35.85 0 0 0-29.11-14.93c-4.37 0-7 .65-7.05.5a9.94 9.94 0 0 1 1.86-.47 31.16 31.16 0 0 1 5.19-.52 34.84 34.84 0 0 1 29.52 15.14 31.15 31.15 0 0 1 2.6 4.52 9.41 9.41 0 0 1 .7 1.78Z"/><path d="M382 493.35c-9.49 1.49-21.57 8.69-26 17.22-.94 1.82-.08 2.07 0 4.12a5.48 5.48 0 0 0 3.09 4.93c1.9.77 4.47-.33 4.82-2.34a28.23 28.23 0 0 0 4.26 20 15.19 15.19 0 0 0 6.17-6.55 37.47 37.47 0 0 0 10.43 27.82l-4.62-18c-1.68-6.51-3.27-12.09-2.83-18.79.47-7.16 4.73-13.2 8-19.14-4.55 2-9.8 10.93-14.3 16.38a31.33 31.33 0 0 1 10.57-25.3" opacity=".3"/><path d="M380.25 540.69a6 6 0 0 1-.36-.77c-.19-.53-.57-1.29-.9-2.32a35.45 35.45 0 0 1-1.76-9.07 38.65 38.65 0 0 1 1.63-13.93 37.45 37.45 0 0 1 8.9-15.25l.46.47a136 136 0 0 0-10.86 10.88 51.93 51.93 0 0 0-5.82 8.16l-.51.9-.12-1a28.53 28.53 0 0 1 2.81-15.66 28.05 28.05 0 0 1 8.7-10.36l.23.44a22 22 0 0 0-12.75 12.7 9.83 9.83 0 0 1-.5 1.31 1.36 1.36 0 0 1 .07-.35c.06-.22.14-.58.28-1a21.67 21.67 0 0 1 12.7-13.14l1.75-.67-1.52 1.11a28.26 28.26 0 0 0-11.14 25.53l-.62-.12a51.47 51.47 0 0 1 5.88-8.27 132.74 132.74 0 0 1 10.94-10.93l.46.47a37.23 37.23 0 0 0-8.84 15 38.76 38.76 0 0 0-1.75 13.74 37.73 37.73 0 0 0 1.56 9c.28 1 .62 1.79.78 2.33a4.84 4.84 0 0 1 .25.82Z"/><path fill="red" fill-opacity=".75" d="M225.15 539.26a37.67 37.67 0 0 0 19.36 11.43c.85.19 1.89.31 2.47-.34.76-.84.14-2.16-.49-3.09l-8.3-12.26a43.88 43.88 0 0 0 20.35 9c1.23.2 2.77.2 3.4-.87.51-.88.1-2-.3-2.89q-1.9-4.22-4.16-8.25"/><path d="M257.48 532a6.42 6.42 0 0 1 .41.65c.27.51.62 1.15 1 2l1.64 3.12c.31.62.65 1.27 1 2a6.45 6.45 0 0 1 .82 2.41 2.17 2.17 0 0 1-.42 1.41 2.31 2.31 0 0 1-1.32.78 8 8 0 0 1-3-.13 42.41 42.41 0 0 1-6.37-1.6 44 44 0 0 1-13.24-7.3l.49-.46c.46.68 1 1.4 1.44 2.13l4.63 6.85 2.2 3.25a5.42 5.42 0 0 1 .85 1.84 1.79 1.79 0 0 1-.75 2 2.83 2.83 0 0 1-2 .2c-.61-.11-1.17-.28-1.75-.43a37.25 37.25 0 0 1-3.24-1.06 38.65 38.65 0 0 1-5.52-2.61 35.48 35.48 0 0 1-7-5.31c-.75-.73-1.3-1.32-1.65-1.73a4.2 4.2 0 0 1-.52-.66 4.68 4.68 0 0 1 .61.57c.38.39 1 .94 1.73 1.63a39.85 39.85 0 0 0 7.09 5.08 36.34 36.34 0 0 0 5.38 2.47 32.9 32.9 0 0 0 3.2 1c1.11.29 2.37.74 3.25.25a1.17 1.17 0 0 0 .44-1.31 4.76 4.76 0 0 0-.76-1.59l-2.12-3.3c-1.5-2.21-3.06-4.49-4.64-6.85l-1.44-2.13-1.22-1.81 1.72 1.35a44.85 44.85 0 0 0 13.07 7.14 42.67 42.67 0 0 0 6.28 1.65 7.45 7.45 0 0 0 2.82.18A1.57 1.57 0 0 0 262 542a6.17 6.17 0 0 0-.75-2.25l-1-2-1.53-3.17-.94-2a3.19 3.19 0 0 1-.29-.72Z"/><path d="M257.39 458a29.54 29.54 0 0 0 12.19 11.36 13.21 13.21 0 0 0-3.19-7.24 55.83 55.83 0 0 0 19.2 11.88 21 21 0 0 1-29.49-17M222.42 372.8c10.38 20 44 29.81 70.28 30.23 8.13.13 19.58 6.13 27.66 5.36 18.08-1.74 32.76-11.49 50.88-13 11.27-1 22.63-1.25 33.78-3.2S415.66 389 424.53 382s18.46-14 18.3-25.34c-16.66 20.39-33.12 26.7-58.75 32.65s-52.28 5.84-78.58 4.63c-28.93-1.33-59.29-4.5-83.07-21" opacity=".3"/><path fill="red" fill-opacity=".75" d="M311.74 219.72c.11 0 .21 1.48.61 3.82a43.14 43.14 0 0 0 6.81 17.1c1.32 2 2.26 3.11 2.18 3.19s-.3-.23-.77-.72a25.37 25.37 0 0 1-1.8-2.2 36.83 36.83 0 0 1-6.89-17.29 24.49 24.49 0 0 1-.2-2.84 3.07 3.07 0 0 1 .07-1ZM320.27 216.42c.11 0-.4 1.33-.91 3.5a27.89 27.89 0 0 0 1.35 17c.83 2.06 1.55 3.25 1.45 3.31s-.25-.25-.6-.77a17.84 17.84 0 0 1-1.3-2.34 25 25 0 0 1-2.26-8.52 24.51 24.51 0 0 1 .85-8.77 16 16 0 0 1 .9-2.51c.26-.57.43-.88.47-.86ZM160.27 433.69a6.38 6.38 0 0 1 .53-.51c.36-.31.87-.79 1.59-1.35a50.74 50.74 0 0 1 6.34-4.34A75.48 75.48 0 0 1 192.5 419a156.51 156.51 0 0 1 25.19-2.43c3.24-.08 5.86-.11 7.67-.11h2.08a2.25 2.25 0 0 1 .73 0 2.49 2.49 0 0 1-.72.08l-2.07.1-7.67.33a176 176 0 0 0-25.08 2.61 79.47 79.47 0 0 0-23.63 8.31 60.94 60.94 0 0 0-6.42 4.13c-1.45 1.07-2.23 1.7-2.27 1.66ZM347.67 222.14c0 .12-2.25-.64-5.87-1.51a26 26 0 0 0-6.46-.78 14.59 14.59 0 0 0-7.49 2.14 10.35 10.35 0 0 0-2.94 2.73 9.49 9.49 0 0 0-1.48 3.42 15.07 15.07 0 0 0 .28 6.41c.9 3.6 1.87 5.75 1.74 5.8a8 8 0 0 1-.72-1.47 29.47 29.47 0 0 1-1.48-4.2 14.91 14.91 0 0 1-.42-6.64 10 10 0 0 1 1.55-3.69 11 11 0 0 1 3.12-2.93 14.92 14.92 0 0 1 7.86-2.17 25.19 25.19 0 0 1 6.57.94c1.82.49 3.26 1 4.25 1.35a8.21 8.21 0 0 1 1.5.63ZM543.8 549.69c-1.41-9.4-6-18.62-13.87-24s-19.16-6-26.64-.1l-31 42 66.07.27c3.69-3.41 6.24-13.19 5.48-18.15Z"/><path d="M499.83 567c5.58-2.33 9.7-7.33 12.22-12.82s3.65-11.51 4.76-17.45c.91-4.93 1.79-10.25-.36-14.8a3 3 0 0 0-2.66 1.28 9.25 9.25 0 0 0-1.25 2.84c-5.11 16.13-13 30-25.85 41" opacity=".3"/><path fill="#fff" d="M303.62 239.22c6.52 18.84 7.34 39.15 6.65 59.07-.35 9.91-1.08 19.93-4.18 29.34s-8.8 18.3-17.23 23.5c-8 4.93-17.84 6.21-27.14 5s-18.15-4.79-26.52-9c-9.57-4.8-18.79-10.56-26.22-18.26s-13.51-18.55-14.74-29.19l13.76 1.51s10.6-1.14 27.1-17.07c18-17.41 21.28-19.54 34.78-28.61a139.14 139.14 0 0 1 33.74-16.27Z" opacity=".3"/><path d="M360.56 355.33a13.71 13.71 0 0 1 16.37 2.22 18.13 18.13 0 0 1 18.33-6.67c-4 1.82-8 3.7-11.27 6.66s-5.56 7.22-5.15 11.59A62.39 62.39 0 0 0 365.05 358c-2.12-1.26-4.92-2.37-6.89-.91" opacity=".3"/><path fill="red" fill-opacity=".75" d="M405.57 502.56A42.77 42.77 0 0 0 390.39 552"/><path d="m390.4 552-.24-.51c-.13-.34-.36-.85-.58-1.51a37.18 37.18 0 0 1-1.46-5.79 41.89 41.89 0 0 1 11.18-36.39 36.72 36.72 0 0 1 4.45-4c.55-.43 1-.73 1.32-.94a1.92 1.92 0 0 1 .5-.29 17.15 17.15 0 0 1-1.65 1.42 48.53 48.53 0 0 0-4.27 4.09 43.22 43.22 0 0 0-11 36 47.56 47.56 0 0 0 1.24 5.78 15.24 15.24 0 0 1 .56 2.11Z"/><path fill="red" fill-opacity=".75" d="M431.58 457.31c5.33-4.1 12.25-8.43 18.33-5.54 3.45 1.63 5.57 5.32 6.23 9.07s.07 7.61-.69 11.35a137.42 137.42 0 0 1-27.8 59c-5 6.21-12.2 12.52-20 10.81-7.31-1.61-11.44-10-11-17.41s4.21-14.26 7.69-20.88c8.29-15.69 16.34-32.88 27.27-46.43"/><path d="M431.58 457.31s-.1.17-.34.5-.6.81-1.06 1.4a154.4 154.4 0 0 0-3.91 5.49 225.86 225.86 0 0 0-12.49 21.38l-7.87 15.21c-2.77 5.49-6.26 11.17-8.07 17.81a22.6 22.6 0 0 0-.53 10.37 17.2 17.2 0 0 0 5.08 9.41 11.84 11.84 0 0 0 4.8 2.66 12.23 12.23 0 0 0 5.58.15 21.48 21.48 0 0 0 10-5.71 65 65 0 0 0 7.67-8.9c2.36-3.1 4.47-6.27 6.5-9.43A138.61 138.61 0 0 0 453.36 480c.79-3 1.45-5.87 2-8.66a34.47 34.47 0 0 0 .79-8.1c-.15-5.13-2.83-9.8-6.68-11.36a10.15 10.15 0 0 0-5.58-.66 17.65 17.65 0 0 0-4.6 1.42 39.54 39.54 0 0 0-5.79 3.4l-1.43 1a5.25 5.25 0 0 1-.49.33 4.28 4.28 0 0 1 .45-.4c.3-.24.77-.61 1.39-1.07a36 36 0 0 1 5.75-3.53 17.82 17.82 0 0 1 4.67-1.5 10.17 10.17 0 0 1 10.73 5.13 15.78 15.78 0 0 1 2.07 7.21 35 35 0 0 1-.76 8.23q-.84 4.22-2 8.7a138.61 138.61 0 0 1-16.4 37.86 154.26 154.26 0 0 1-6.53 9.49 65.82 65.82 0 0 1-7.75 9c-2.94 2.71-6.38 5.06-10.31 5.87a12.61 12.61 0 0 1-5.89-.17 12.26 12.26 0 0 1-5.07-2.81 18 18 0 0 1-5.27-9.78 23.16 23.16 0 0 1 .56-10.66c1.87-6.77 5.4-12.44 8.17-17.91s5.52-10.53 8-15.17a212 212 0 0 1 12.71-21.31c1.67-2.4 3-4.22 4-5.42l1.11-1.36.4-.44Z"/><path d="M432.22 476c1.31-3.69 4.1-4.75 7.09-5.83s6.63-1 9 1.12c2.77 2.41 3.13 6.64 2.38 10.24a7 7 0 0 1-1.52 3.46 3 3 0 0 1-3.46.8c-1.32-.72-1.71-2.6-3.09-3.19-1.58-.68-3.22.72-4.9 1.13a5 5 0 0 1-5.63-3 6.21 6.21 0 0 1 .13-4.77ZM437.93 457.55c1.33.39 2 1.91 2.06 3.55a14 14 0 0 1-1.06 4.77c-.46 1.28-1.24 2.76-2.59 2.81a2.29 2.29 0 0 1-1.91-1.13 5.05 5.05 0 0 1-.61-2.22 12.05 12.05 0 0 1 .79-5.25 4.74 4.74 0 0 1 1.56-2.18 2.09 2.09 0 0 1 2.52.05M453.6 460.76c1.32.4 2 1.91 2 3.56a14.49 14.49 0 0 1-1.06 4.77c-.45 1.28-1.24 2.76-2.59 2.81a2.24 2.24 0 0 1-1.9-1.14 4.93 4.93 0 0 1-.62-2.22 11.87 11.87 0 0 1 .8-5.24 4.65 4.65 0 0 1 1.55-2.18 2.07 2.07 0 0 1 2.53.05M447 454.78c1.32.39 2 1.91 2 3.55a14 14 0 0 1-1.06 4.77c-.45 1.28-1.24 2.76-2.58 2.81a2.23 2.23 0 0 1-1.91-1.13 5 5 0 0 1-.62-2.23 12 12 0 0 1 .8-5.24 4.65 4.65 0 0 1 1.55-2.18 2.1 2.1 0 0 1 2.53.05M441.91 508.21a85.88 85.88 0 0 1-6.39 23A50.3 50.3 0 0 1 421.17 550c-2.87 2.26-6.23 4.19-9.89 4.29-5.17.13-9.87-3.57-12.2-8.18s-2.65-10-2.38-15.14c2.5 4.17 5.31 8.63 9.83 10.42 3.91 1.55 8.46.76 12.15-1.27a32.84 32.84 0 0 0 9.29-8.4 94 94 0 0 0 13.68-22.57" opacity=".3"/><path fill="red" fill-opacity=".75" d="M149.12 458.36c-6.44-2-14.42-3.6-19.11 1.24-2.65 2.73-3.36 6.94-2.65 10.68s2.61 7.15 4.62 10.39a137.44 137.44 0 0 0 46.74 45.52c6.9 4 15.82 7.45 22.54 3.11 6.27-4.06 7.22-13.32 4.22-20.15s-8.94-11.88-14.48-16.85c-13.27-11.8-26.82-25.07-41.82-33.93"/><path d="m149.12 458.36.52.29 1.52.88c1.32.8 3.26 2 5.66 3.68a209.15 209.15 0 0 1 19.38 15.5l12.75 11.44c4.58 4.12 9.81 8.22 13.94 13.9a23.38 23.38 0 0 1 4.27 9.79 17.92 17.92 0 0 1-1.5 11 12.47 12.47 0 0 1-3.76 4.4 12.91 12.91 0 0 1-5.45 2.22c-4 .63-8-.38-11.72-1.88a64.65 64.65 0 0 1-10.42-5.71 150.45 150.45 0 0 1-9.44-6.6 138.63 138.63 0 0 1-16.17-14.56 136.92 136.92 0 0 1-12.49-15.22q-2.66-3.78-4.91-7.46a34.26 34.26 0 0 1-3.59-7.44 15.52 15.52 0 0 1-.6-7.47 10.15 10.15 0 0 1 8.26-8.54 17.43 17.43 0 0 1 4.89-.22 35.51 35.51 0 0 1 6.63 1.3c.74.2 1.3.39 1.67.51a3.73 3.73 0 0 1 .56.2l-.59-.13-1.7-.44a38 38 0 0 0-6.61-1.16 18 18 0 0 0-4.81.28 10.07 10.07 0 0 0-5 2.58c-3 2.81-3.93 8.11-2.27 13a33.19 33.19 0 0 0 3.58 7.3c1.52 2.42 3.15 4.89 4.92 7.41a136.86 136.86 0 0 0 12.49 15.11 140 140 0 0 0 16.12 14.47c3 2.25 6.12 4.49 9.4 6.56A65.32 65.32 0 0 0 185 529c3.64 1.48 7.57 2.44 11.34 1.84a12.55 12.55 0 0 0 5.18-2.09 11.77 11.77 0 0 0 3.57-4.17 17.37 17.37 0 0 0 1.46-10.6 22.57 22.57 0 0 0-4.14-9.53c-4-5.59-9.28-9.68-13.81-13.84l-12.7-11.49a221.41 221.41 0 0 0-19.21-15.64 132.2 132.2 0 0 0-5.58-3.78l-1.48-.94-.49-.34Z"/><path d="M155.05 476h.06c-2.53-3-5.49-3-8.68-3s-6.54 1.42-8.06 4.21c-1.75 3.23-.6 7.3 1.36 10.43a7 7 0 0 0 2.63 2.7 3 3 0 0 0 3.52-.46c1-1.13.69-3 1.78-4.07 1.24-1.19 3.26-.46 5-.64a5 5 0 0 0 4.21-4.81 6.19 6.19 0 0 0-1.81-4.42ZM143.25 460.8c-1.1.83-1.24 2.51-.68 4a13.7 13.7 0 0 0 2.67 4.09c.87 1 2.13 2.16 3.41 1.73A2.26 2.26 0 0 0 150 469a4.89 4.89 0 0 0-.21-2.28 11.86 11.86 0 0 0-2.59-4.63 4.59 4.59 0 0 0-2.22-1.5 2.08 2.08 0 0 0-2.34.92M129.71 469.3c-1.1.82-1.24 2.51-.68 4a13.7 13.7 0 0 0 2.67 4.09c.87 1 2.13 2.16 3.41 1.73a2.26 2.26 0 0 0 1.38-1.74 4.82 4.82 0 0 0-.21-2.29 11.71 11.71 0 0 0-2.58-4.63 4.67 4.67 0 0 0-2.23-1.5 2.1 2.1 0 0 0-2.34.93M133.81 461.38c-1.09.82-1.24 2.51-.68 4.05a14 14 0 0 0 2.67 4.09c.88 1 2.13 2.16 3.41 1.73a2.3 2.3 0 0 0 1.39-1.74 4.82 4.82 0 0 0-.21-2.29 11.86 11.86 0 0 0-2.59-4.63 4.64 4.64 0 0 0-2.22-1.5 2.08 2.08 0 0 0-2.34.93M157.29 509.63a84.94 84.94 0 0 0 14 19.25 50.33 50.33 0 0 0 20 12.62c3.49 1.11 7.31 1.74 10.78.53 4.89-1.68 8-6.79 8.55-11.93s-1-10.27-3.08-15c-.87 4.78-1.94 9.93-5.55 13.2-3.11 2.82-7.66 3.67-11.82 3.07s-8-2.5-11.66-4.62a93.63 93.63 0 0 1-20.72-16.35" opacity=".3"/><path fill="#fff" d="m152.49 502.53-1.13 1.6a22.67 22.67 0 0 1 38.07 24.63l-.66 1a116.15 116.15 0 0 1-39.09-26.32" opacity=".3"/><path d="M521.57 489.63a8.72 8.72 0 0 1-.08.88l-.34 2.51c-.3 2.18-.81 5.32-1.53 9.19a173.65 173.65 0 0 1-8.06 29.64 107.07 107.07 0 0 1-7.29 15.29c-.67 1.13-1.39 2.17-2 3.22l-1 1.53-1 1.41c-.7.93-1.38 1.82-2 2.68s-1.38 1.59-2 2.33a23.19 23.19 0 0 1-1.89 2.07l-1.82 1.74c-.56.54-1.08 1-1.58 1.5l-1.44 1.14-2 1.56a5.88 5.88 0 0 1-.72.51 4.16 4.16 0 0 1 .64-.62c.5-.42 1.13-1 1.91-1.64l1.39-1.18 1.52-1.54 1.77-1.77c.63-.61 1.19-1.36 1.84-2.09s1.3-1.53 2-2.34l2-2.69 1-1.41 1-1.53c.66-1 1.35-2.09 2-3.2a110.78 110.78 0 0 0 7.2-15.22 187.38 187.38 0 0 0 8.22-29.48c.78-3.84 1.36-7 1.74-9.14.2-1 .35-1.86.47-2.48a6.48 6.48 0 0 1 .21-.87ZM220.8 410.37q.28-.33.6-.63l1.81-1.71c.8-.75 1.78-1.64 3-2.63s2.48-2.17 4-3.37c3-2.47 6.67-5.27 10.86-8.24s9-6 14.07-9 10.16-5.53 14.8-7.73 8.91-3.95 12.55-5.31c1.8-.72 3.46-1.29 4.91-1.79s2.71-.93 3.75-1.26l2.4-.73a3.11 3.11 0 0 1 .85-.21 3.77 3.77 0 0 1-.8.34l-2.34.85c-1 .35-2.27.8-3.7 1.36s-3.09 1.14-4.88 1.88a209.66 209.66 0 0 0-27.17 13.2c-5.11 2.94-9.84 6-14 8.91s-7.9 5.68-10.92 8.09c-1.54 1.18-2.86 2.32-4.07 3.3s-2.19 1.83-3 2.53-1.42 1.21-1.91 1.61a4 4 0 0 1-.7.53ZM184 388.53a1.55 1.55 0 0 1 .24-.19l.73-.5 2.86-1.82c1.24-.8 2.77-1.76 4.6-2.79s3.87-2.29 6.23-3.49l3.66-2c1.28-.66 2.64-1.29 4-2 2.77-1.4 5.83-2.72 9-4.13a230.33 230.33 0 0 1 21.34-7.83 217.58 217.58 0 0 1 22.07-5.5c3.44-.62 6.71-1.25 9.79-1.65 1.55-.21 3-.46 4.46-.63l4.12-.44c2.63-.33 5-.45 7.11-.6s3.9-.25 5.37-.28l3.4-.09h1.19l-.3.05-.87.08-3.39.22c-1.48.08-3.28.18-5.36.39s-4.47.35-7.09.71l-4.1.49c-1.43.17-2.9.43-4.43.66-3.08.42-6.33 1.07-9.75 1.7a242.7 242.7 0 0 0-22 5.54 226.63 226.63 0 0 0-21.3 7.75c-3.19 1.4-6.25 2.69-9 4.06-1.4.68-2.76 1.3-4 1.95l-3.67 1.9c-2.37 1.17-4.42 2.39-6.26 3.39s-3.4 1.92-4.66 2.68l-2.9 1.79-.77.43-.27.13ZM339.8 345.44c.08.2-3.29 1.63-7 4.12s-6.35 5.05-6.5 4.89 2.32-2.94 6.12-5.46 7.33-3.71 7.38-3.55ZM361.92 352.56c-.05.11-1.93-.75-5.14-1.57a39.43 39.43 0 0 0-12.8-1.17c-5 .38-9.53 1.58-12.34 3.28a12.75 12.75 0 0 0-3.85 3.61 3.72 3.72 0 0 1 .68-1.29 10.2 10.2 0 0 1 2.91-2.72c2.85-1.87 7.44-3.16 12.55-3.54a36.37 36.37 0 0 1 13 1.38 30.73 30.73 0 0 1 3.73 1.35 5.41 5.41 0 0 1 1.28.68Z"/><path fill="#f5f5f5" d="m319 363.44 1.53 3.66a10.87 10.87 0 0 1 .92 3 3.63 3.63 0 0 1-.86 2.91 3.52 3.52 0 0 1-4.27.22 7.37 7.37 0 0 1-2.66-3.67c-.55-1.44-.92-2.95-1.58-4.33a6.84 6.84 0 0 0 2.14-6.2s1.4 4.18 4.8 4.41Z"/><path d="M297.61 350.11a18.75 18.75 0 0 1 11.62-9.66c8.33-2.19 17 6.56 17 6.56s-10.1-3-9.94 2 3.11 4.89-.24 8.19-9.08-.18-10.49-4l-2.7-3.79-5.26.71Z"/><path d="M332.15 355.05a2.43 2.43 0 0 1 .08.47 6.18 6.18 0 0 1 0 1.36 9.5 9.5 0 0 1-2 4.6 9.35 9.35 0 0 1-6.39 3.66 9.88 9.88 0 0 1-8.27-3.43 9.39 9.39 0 0 1-2.06-4l.64-.18a8.46 8.46 0 0 1-1.08 7.37 7.88 7.88 0 0 1-5 3.25 8.21 8.21 0 0 1-4-.19 5.13 5.13 0 0 1-1-.41c-.21-.11-.31-.18-.31-.2s.48.17 1.36.39a8.45 8.45 0 0 0 3.81 0 7.57 7.57 0 0 0 4.63-3.15 7.9 7.9 0 0 0 .94-6.83l.64-.18a9 9 0 0 0 1.92 3.71 9.38 9.38 0 0 0 7.71 3.27 9.05 9.05 0 0 0 6.07-3.33 9.78 9.78 0 0 0 2.07-4.34c.21-1.14.16-1.79.22-1.79Z"/><path fill="#fff" d="M316 341.67a13.14 13.14 0 0 1-2.66.12 23.64 23.64 0 0 0-6.26.81 12.08 12.08 0 0 0-5.3 3.18c-1.1 1.18-1.47 2.15-1.58 2.1a4.75 4.75 0 0 1 1.22-2.41 11.19 11.19 0 0 1 5.46-3.53 19.07 19.07 0 0 1 6.47-.64 9.12 9.12 0 0 1 2.65.37Z"/><path d="M318.5 374.15c-.15.08-1.64-2.89-2.82-6.8s-1.58-7.19-1.41-7.21.89 3.16 2.05 7 2.35 6.92 2.17 7ZM225.43 388.81a5.7 5.7 0 0 1 .52-.46l1.58-1.22c1.37-1.06 3.43-2.51 6-4.21s5.78-3.61 9.39-5.57a127.84 127.84 0 0 1 12.08-5.71c4.39-1.82 8.68-3.27 12.61-4.46s7.55-2.05 10.59-2.65 5.53-1 7.24-1.26l2-.24a2 2 0 0 1 .69 0 3.2 3.2 0 0 1-.68.16c-.52.11-1.17.23-2 .37a154.88 154.88 0 0 0-17.7 4.25 140.59 140.59 0 0 0-24.59 10.11c-3.64 1.88-6.81 3.77-9.42 5.42s-4.72 3-6.13 4l-1.61 1.11a3 3 0 0 1-.6.35Z"/><path fill="#f5f5f5" d="M291 331.23a29.48 29.48 0 1 0-35.51 21.84 29.46 29.46 0 0 0 35.5-21.8Z"/><path d="M291.74 324.43c0 14.23-9.59 25.76-17.74 25.76s-14.73-11.53-14.73-25.76 6.6-25.76 14.73-25.76 17.74 11.52 17.74 25.76Z"/><path fill="#fff" d="M280.55 315a5 5 0 1 0-5-5 5 5 0 0 0 5 5ZM267.51 343.16a11.93 11.93 0 0 1-.74-1.24 31.94 31.94 0 0 1-1.58-3.6 39.07 39.07 0 0 1-1.58-5.62 42.44 42.44 0 0 1-.73-7.11 41.38 41.38 0 0 1 .59-7.12 37.79 37.79 0 0 1 1.46-5.65 30.14 30.14 0 0 1 1.5-3.63 6 6 0 0 1 .72-1.26c.12.06-.79 1.9-1.76 5a43.32 43.32 0 0 0-1.31 5.6 46.92 46.92 0 0 0-.52 7 45.58 45.58 0 0 0 .67 7 41.44 41.44 0 0 0 1.41 5.58c1 3.11 2 4.94 1.87 5Z"/><path d="M254.79 286.89c-.08 1-1.18 1.69-2.66 2.37s-3.38 1.34-5.3 2.17-3.61 1.64-5.05 2.28-2.65 1.05-3.46.54-1-1.93-.06-3.83a11.53 11.53 0 0 1 5.93-5.27 12.23 12.23 0 0 1 7.71-.7c1.95.55 2.97 1.55 2.89 2.44Z"/><path fill="red" fill-opacity=".75" d="m114.1 538 6.61-10.37c31.56 34.66 135.83 75.88 229.19-17.29 40.1-40 36.86-107.65 36.86-107.65l-8-25h8s23.11 42.62-1.09 98.43c0 0-24.89 66.15-100.88 90.16C164.83 604.13 114.1 538 114.1 538Z"/><path fill="#fff" d="m114.1 538 6.61-10.37c31.56 34.66 135.83 75.88 229.19-17.29 40.1-40 36.86-107.65 36.86-107.65l-8-25h8s23.11 42.62-1.09 98.43c0 0-24.89 66.15-100.88 90.16C164.83 604.13 114.1 538 114.1 538Z" opacity=".7"/><path fill="red" fill-opacity=".75" d="M112.31 550.68a56.66 56.66 0 1 0-80.14 0 56.66 56.66 0 0 0 80.14 0Z"/><path fill="#fff" d="M112.31 550.68a56.66 56.66 0 1 0-80.14 0 56.66 56.66 0 0 0 80.14 0Z" opacity=".7"/><path fill="red" fill-opacity=".75" d="M85.82 455.53a4.37 4.37 0 0 1-.19 1.08c-.19.7-.4 1.77-.68 3.07l-.51 2.21c-.18.8-.47 1.66-.74 2.6-.55 1.85-1.09 4-1.94 6.29l-1.27 3.62c-.44 1.26-1 2.55-1.5 3.85-1 2.68-2.38 5.44-3.76 8.35a147.93 147.93 0 0 1-10.74 18A146.65 146.65 0 0 1 51 520.74c-2.31 2.26-4.46 4.46-6.65 6.31-1.08 1-2.09 1.9-3.12 2.74l-3 2.39c-1.89 1.57-3.72 2.78-5.28 3.92-.8.56-1.52 1.1-2.21 1.56l-1.93 1.21-2.66 1.66a6.43 6.43 0 0 1-1 .54 5.62 5.62 0 0 1 .88-.66l2.59-1.76 1.88-1.26c.68-.47 1.39-1 2.17-1.59 1.54-1.16 3.36-2.41 5.2-4l3-2.41c1-.86 2-1.81 3.08-2.75 2.17-1.87 4.29-4.06 6.58-6.33a149.68 149.68 0 0 0 13.36-16.06 148.85 148.85 0 0 0 10.75-17.9c1.39-2.9 2.75-5.63 3.79-8.28.54-1.32 1.11-2.58 1.57-3.83l1.31-3.58c.87-2.28 1.45-4.39 2-6.24.27-.92.56-1.77.78-2.57s.39-1.53.56-2.2l.8-3a6.4 6.4 0 0 1 .33-1ZM99.22 461.31a4.44 4.44 0 0 1-.23 1.14c-.22.74-.45 1.87-.76 3.23-.17.7-.37 1.49-.56 2.32s-.52 1.76-.81 2.74c-.63 1.94-1.22 4.2-2.16 6.61l-1.4 3.8c-.49 1.32-1.11 2.66-1.7 4.06a108.3 108.3 0 0 1-4.14 8.79 144.45 144.45 0 0 1-11.89 18.73 147.86 147.86 0 0 1-14.82 16.47c-2.51 2.32-4.89 4.52-7.27 6.41-1.18 1-2.28 1.93-3.41 2.75l-3.26 2.42c-2 1.58-4 2.8-5.72 4s-3.21 2.07-4.46 2.79l-2.86 1.67a9.72 9.72 0 0 1-1 .55 6.71 6.71 0 0 1 1-.67l2.8-1.78c1.23-.75 2.72-1.68 4.38-2.87s3.63-2.43 5.64-4l3.15-2.47c1.13-.84 2.21-1.83 3.37-2.79 2.36-1.89 4.71-4.11 7.19-6.43A148.89 148.89 0 0 0 75 512.27a147.67 147.67 0 0 0 11.87-18.61c1.53-3 3-5.89 4.2-8.69.59-1.39 1.24-2.71 1.72-4l1.44-3.77c1-2.38 1.6-4.62 2.25-6.56.31-1 .63-1.87.86-2.72l.63-2.31.89-3.19a7.15 7.15 0 0 1 .35-1.11ZM111.64 471.49s-.08.4-.29 1.13-.56 1.85-1 3.2l-.72 2.31c-.26.83-.63 1.74-1 2.71-.73 1.93-1.47 4.17-2.53 6.53-.51 1.21-1 2.45-1.61 3.75l-1.91 4c-1.28 2.79-2.9 5.62-4.56 8.64a163.37 163.37 0 0 1-12.54 18.54 163.87 163.87 0 0 1-15.16 16.45c-2.56 2.3-5 4.54-7.36 6.42-1.19 1-2.31 1.92-3.45 2.77s-2.24 1.64-3.28 2.43c-2.07 1.58-4.07 2.82-5.78 4-.86.56-1.66 1.11-2.41 1.57l-2 1.19a152.2 152.2 0 0 1-2.9 1.67 9.72 9.72 0 0 1-1 .55 8.3 8.3 0 0 1 1-.67l2.72-1.68 2-1.27c.75-.48 1.52-1 2.38-1.62C52 552.84 54 551.57 56 550l3.24-2.46c1.13-.86 2.24-1.83 3.42-2.8 2.39-1.89 4.75-4.13 7.29-6.44a168.22 168.22 0 0 0 15-16.41 167.65 167.65 0 0 0 12.52-18.42c1.66-3 3.3-5.81 4.59-8.57.67-1.37 1.36-2.67 1.94-4l1.63-3.73c1.1-2.35 1.87-4.57 2.63-6.48.36-1 .73-1.85 1-2.68l.77-2.28c.46-1.34.83-2.38 1.09-3.17a7.1 7.1 0 0 1 .42-1.08ZM126.47 525.25a10 10 0 0 1-1.27-.52 92.7 92.7 0 0 1-3.31-1.66 210.37 210.37 0 0 1-20.94-12.6c-1.28-.89-2.31-1.62-3-2.14a4.93 4.93 0 0 1-1-.88 4.47 4.47 0 0 1 1.19.66l3.14 2c2.64 1.67 6.29 4 10.37 6.41s7.81 4.61 10.52 6.16l3.2 1.84a5.35 5.35 0 0 1 1.14.75ZM128.86 513a33.93 33.93 0 0 1-3.8-2.48c-2.32-1.58-5.53-3.72-9.18-5.95s-7-4.09-9.49-5.45a37.38 37.38 0 0 1-3.92-2.28 4.69 4.69 0 0 1 1.15.43c.71.31 1.74.81 3 1.42a125.21 125.21 0 0 1 18.72 11.43c1.13.85 2 1.54 2.63 2a5.44 5.44 0 0 1 .9.83ZM93.93 561.78c-.19 0-.63-10.39-1-23.2s-.49-23.22-.31-23.22.63 10.37 1 23.21.5 23.21.32 23.23Z"/><path fill="red" fill-opacity=".75" d="M66 568.28c-.18 0-.34-5.82-.34-13s.16-13 .34-13 .34 5.82.34 13-.16 13-.34 13ZM79.73 566.78c-.18 0-.29-8.5-.21-19s.28-19 .47-19 .29 8.49.21 19-.27 19-.47 19ZM50.76 520.74c-.1.16-7.5-4.63-16.52-10.66S18 499 18.09 498.84s7.5 4.61 16.52 10.66 16.25 11.09 16.15 11.24ZM40.88 528.85a8.5 8.5 0 0 1-1.11-.37c-.71-.27-1.7-.72-2.92-1.29a92.87 92.87 0 0 1-9.2-5.12 120.01 120.01 0 0 1-8.66-6 24.84 24.84 0 0 1-3.35-2.78 35 35 0 0 1 3.64 2.38c2.21 1.52 5.27 3.62 8.74 5.81s6.69 4 9 5.25a42.83 42.83 0 0 1 3.82 2.09ZM74.91 486.5s-.7.31-2 .77c-.64.23-1.45.48-2.4.73s-2 .56-3.22.81a68.5 68.5 0 0 1-8.55 1.35 93.6 93.6 0 0 1-10.59.33 98.29 98.29 0 0 1-10.55-1 76.19 76.19 0 0 1-8.46-1.8c-1.19-.3-2.25-.64-3.19-.95s-1.73-.57-2.37-.83a13 13 0 0 1-2-.83 13.33 13.33 0 0 1 2.05.59c.66.22 1.46.45 2.4.71s2 .58 3.19.85c2.36.63 5.24 1.14 8.43 1.65a99.27 99.27 0 0 0 10.47.92 99.62 99.62 0 0 0 10.51-.28 81.22 81.22 0 0 0 8.5-1.2c1.2-.21 2.27-.47 3.23-.71s1.76-.42 2.41-.62a10.53 10.53 0 0 1 2.08-.51ZM81.17 471.83s-.67.37-1.92.91c-.63.28-1.42.57-2.33.9s-2 .7-3.14 1a79.39 79.39 0 0 1-8.34 2.08A94 94 0 0 1 55 478.11a92.65 92.65 0 0 1-10.54 0A65.17 65.17 0 0 1 36 477c-1.09-.2-2.16-.45-3.22-.75a24.38 24.38 0 0 1-2.39-.72 14.67 14.67 0 0 1-2-.76 14.89 14.89 0 0 1 2.07.51c.65.19 1.46.39 2.4.6s2 .47 3.22.65a70.89 70.89 0 0 0 8.47 1 101 101 0 0 0 10.45-.14 103.57 103.57 0 0 0 10.38-1.28 96.1 96.1 0 0 0 11.48-2.87c.93-.31 1.71-.54 2.35-.78a13 13 0 0 1 2-.65ZM85 459s-.6.3-1.73.72-2.78 1-4.83 1.62A112.79 112.79 0 0 1 62 465a94.67 94.67 0 0 1-16.82.94c-2.16-.08-3.9-.21-5.1-.37a9.74 9.74 0 0 1-1.85-.28 8.26 8.26 0 0 1 1.86 0c1.21.07 3 .13 5.09.15a111.42 111.42 0 0 0 16.72-1.14 132.7 132.7 0 0 0 16.39-3.49c2.07-.58 3.74-1.06 4.89-1.41A11.14 11.14 0 0 1 85 459ZM108 514.67c.15.12-3.11 3.9-7.25 8.43s-7.61 8.1-7.76 8 3.12-3.91 7.26-8.43 7.55-8.14 7.75-8ZM118.82 521.1a8.8 8.8 0 0 1-.59 1.09c-.42.7-1.06 1.65-1.91 2.81a53.34 53.34 0 0 1-7.57 8.25 52.19 52.19 0 0 1-9.15 6.47 44.97 44.97 0 0 1-3 1.54 4 4 0 0 1-1.16.45c0-.11 1.52-.92 4-2.41A62.59 62.59 0 0 0 116 524.7a43.35 43.35 0 0 1 2.89-3.6ZM122.11 527c.17 0-.14 3.57-2.27 7.33s-5 5.93-5.06 5.78a40.41 40.41 0 0 0 4.46-6.1c2-3.66 2.65-7 2.86-7ZM133.08 539c.17 0-.52 2.9-2.77 5.67s-4.88 4.09-4.94 3.94a42.12 42.12 0 0 0 4.4-4.36c2.13-2.68 3.11-5.32 3.31-5.24ZM150.74 549.71c.17 0 .13 3.11-1.7 6.41s-4.4 5-4.48 4.89a29.89 29.89 0 0 0 3.88-5.21c1.7-3.21 2.08-6.12 2.3-6.09ZM171.12 559.51c.16-.07.71 2.94-.64 6.32s-3.75 5.23-3.83 5.08a22.63 22.63 0 0 0 3.19-5.32c1.19-3.21 1.06-6.08 1.27-6.08ZM189.87 576.23c-.2-.07.59-2.59.77-5.81s-.28-5.81-.08-5.85 1 2.56.76 5.89a13.75 13.75 0 0 1-1.45 5.77ZM205.23 577.35c-.2-.08.76-2.35 1-5.31s-.26-5.36-.06-5.41 1 2.37.74 5.47-1.54 5.34-1.68 5.25ZM226.72 577.14c-.2 0 .12-2.23-.23-4.91s-1.2-4.74-1-4.81 1.33 1.92 1.68 4.73-.28 5.04-.45 4.99ZM241.56 576c-.21 0-.21-2.1-.92-4.56s-1.76-4.26-1.59-4.37 1.53 1.6 2.25 4.19.43 4.74.26 4.74ZM259 572.07c-.21 0-.11-2-.88-4.39s-2-4-1.84-4.08 1.7 1.37 2.49 3.87.39 4.64.23 4.6ZM280.45 567.7c-.21 0-.22-2.28-1.19-4.89s-2.39-4.37-2.24-4.5 1.89 1.53 2.88 4.27.72 5.15.55 5.12ZM298.58 560.65c-.19 0-.91-2.32-2.46-4.89s-3.25-4.37-3.11-4.51 2.11 1.46 3.69 4.17a12.15 12.15 0 0 1 1.87 5.24ZM318.77 550.05c-.2 0-.81-2.46-2.46-5.1s-3.6-4.32-3.45-4.48 2.33 1.34 4 4.11 2.05 5.44 1.88 5.45ZM338.52 536c-.2.07-1-2.21-2.89-4.39s-4-3.29-3.93-3.47 2.44.7 4.45 3 2.55 4.81 2.38 4.83ZM355.43 521.45c-.16.12-1.73-2-4.11-4.15s-4.61-3.54-4.5-3.71 2.52 1 4.95 3.22 3.81 4.55 3.66 4.64ZM370.59 502.61c-.17.11-1.48-2-3.78-3.93s-4.59-2.88-4.51-3.07 2.55.51 4.95 2.55 3.51 4.39 3.35 4.45ZM384.08 480.2c-.16.14-1.94-1.86-4.77-3.39s-5.45-2-5.42-2.21 2.8 0 5.74 1.61 4.59 3.91 4.44 4ZM392.3 456c-.12.17-2.36-1.49-5.62-2.23s-6-.31-6-.51 2.76-1 6.2-.16 5.61 2.79 5.48 2.9ZM396 430c-.08.18-2.2-.55-4.93-.84s-5-.05-5-.25 2.24-.74 5.08-.41A11.37 11.37 0 0 1 396 430ZM394.59 404c0 .2-1.69 0-3.7.16s-3.65.36-3.7.18 1.57-.77 3.67-.86 3.77.35 3.74.52ZM389.26 386c-.08.18-1.74-.6-3.87-.35s-3.59 1.33-3.72 1.16.24-.45.87-.86a6.32 6.32 0 0 1 5.68-.64c.71.28 1.06.59 1 .67Z"/><path d="M300.61 474c6.35 12 21.12 18.22 34.64 16.57s25.56-10 33.95-20.77c6.2-7.92 10.81-18.18 8.25-27.9a61.29 61.29 0 0 1-77.6 30.44" opacity=".3"/><path fill="red" fill-opacity=".75" d="M379.71 370.37a21.62 21.62 0 0 1 5.6-29.41c3.61-2.57 8-4 11.37-6.83a20.81 20.81 0 0 0 7.06-14.54 31.32 31.32 0 0 0-3.57-16l3.63-1.79s.12.13.32.39a26.93 26.93 0 0 1-5.06 37.75 27.39 27.39 0 0 1-4.5 2.78 38.13 38.13 0 0 0-7.64 4.69c-4.54 3.95-2.68 8.38-2.68 8.38"/><path fill="#fff" d="M379.71 370.37a21.62 21.62 0 0 1 5.6-29.41c3.61-2.57 8-4 11.37-6.83a20.81 20.81 0 0 0 7.06-14.54 31.32 31.32 0 0 0-3.57-16l3.63-1.79s.12.13.32.39a26.93 26.93 0 0 1-5.06 37.75 27.39 27.39 0 0 1-4.5 2.78 38.13 38.13 0 0 0-7.64 4.69c-4.54 3.95-2.68 8.38-2.68 8.38" opacity=".7"/><path fill="red" fill-opacity=".75" d="M384.88 356c-.08.19-2-.66-4.52-.41s-4.24 1.39-4.35 1.22 1.58-1.66 4.3-1.9 4.68.94 4.58 1.09ZM388.25 346c-.18.08-.76-1.06-1.83-2.14s-2.2-1.68-2.12-1.86 1.43.17 2.6 1.37 1.53 2.58 1.35 2.62ZM401.07 338.45c-.19.06-.67-1.2-1.68-2.44s-2.15-2-2.06-2.16 1.47.34 2.58 1.73 1.33 2.85 1.16 2.87ZM409.71 322.18c-.07.18-1.34-.26-3-.46s-3-.13-3-.32 1.34-.59 3.07-.36 3.01.96 2.93 1.14ZM406.75 306.47c0 .2-1.11.13-2.34.5s-2.12 1-2.25.81.65-1.06 2.06-1.47 2.58-.01 2.53.16ZM285.74 403.23c4.63-3 10.76-2 16-.29s10.54 4.15 16 3.63c6-.56 11.13-4.56 15.1-9.08a52 52 0 0 0 10.67-19.28c2.18-7.24 3.28-15.76 9.52-20 6.08-4.18 14.89-2.11 20.25 2.94s8 12.39 9.63 19.57c3.92 16.63 4 34.36-1.38 50.58S365.07 462 350 470.13s-34 9.3-49.28 1.69"/><path d="m300.8 471.83.71.29 2 .89c.91.35 2.05.77 3.4 1.24a37.53 37.53 0 0 0 4.76 1.27 54.42 54.42 0 0 0 13.41 1.19 56 56 0 0 0 8.36-1 53 53 0 0 0 9.09-2.5 58 58 0 0 0 18.46-11 68.93 68.93 0 0 0 15.28-19.42 77.64 77.64 0 0 0 8.29-26 96.17 96.17 0 0 0-.63-29.38 84.07 84.07 0 0 0-3.67-14.49 29.42 29.42 0 0 0-7.76-12 18.39 18.39 0 0 0-12.7-4.58 12.93 12.93 0 0 0-6.29 2 14.09 14.09 0 0 0-4.45 4.7c-2.24 3.72-3.21 8-4.31 12a57.3 57.3 0 0 1-4.13 11.42 52.66 52.66 0 0 1-6.11 9.57 37.12 37.12 0 0 1-7.53 7.28 19.57 19.57 0 0 1-8.79 3.57 21.52 21.52 0 0 1-8.44-.91c-5.08-1.5-9.23-3.44-12.91-4a17.43 17.43 0 0 0-8.43.21 11.33 11.33 0 0 0-2 .85c-.43.24-.67.35-.67.35l.64-.42a10.39 10.39 0 0 1 2-.93 17.52 17.52 0 0 1 8.51-.34c3.71.56 7.92 2.47 13 3.92a21 21 0 0 0 8.27.84 19 19 0 0 0 8.58-3.53 36.28 36.28 0 0 0 7.38-7.21 52.93 52.93 0 0 0 6-9.49 56.25 56.25 0 0 0 4.05-11.33c1.1-4 2-8.28 4.35-12.13a14.8 14.8 0 0 1 4.64-4.9 13.3 13.3 0 0 1 6.59-2.08 17.59 17.59 0 0 1 7 1.08 19.2 19.2 0 0 1 6.24 3.64c3.7 3.2 6.2 7.62 8 12.24a84.46 84.46 0 0 1 3.71 14.6 97.54 97.54 0 0 1 .62 29.59 78.09 78.09 0 0 1-8.4 26.23 69.38 69.38 0 0 1-15.46 19.56 58.74 58.74 0 0 1-18.66 11.11 53.11 53.11 0 0 1-9.17 2.48 55.44 55.44 0 0 1-8.43.91 53.75 53.75 0 0 1-13.5-1.3c-1.83-.39-3.39-.92-4.77-1.34a31.41 31.41 0 0 1-3.38-1.3l-2-1-.68-.34Z"/><path d="M357.07 373.51a7.1 7.1 0 0 1-1.57-2 12.66 12.66 0 0 1 .17-12.08 5.65 5.65 0 0 1 1.63-2c.09.08-.52.84-1.2 2.22a14.1 14.1 0 0 0-1.36 5.81 13.83 13.83 0 0 0 1.2 5.84c.64 1.41 1.23 2.18 1.14 2.26ZM365 372.37a8.48 8.48 0 0 1-1.39-2.16 16.58 16.58 0 0 1-.73-12.15 6.28 6.28 0 0 1 1.12-2.31c.21.06-1.54 3.66-1.22 8.4s2.43 8.12 2.23 8.2ZM371.34 374.64c-.15.06-1.08-2.71-1-6.27s1.15-6.29 1.31-6.22-.55 2.78-.63 6.23.51 6.21.3 6.26Z"/><path fill="red" fill-opacity=".75" d="M480.5 391c-12 7.29-27.87 5.9-40.26-.65s-21.78-17.5-29.61-29c-2.22-3.27-4.47-6.73-7.94-8.69-6.77-3.87-16.15-.13-20.05 6.56s-3.16 15.23-.16 22.35c0 0 8 38.63 49.55 62.66"/><path d="m432 444.18-.35-.19-1-.6-3.9-2.39c-.84-.55-1.82-1.06-2.8-1.79l-3.22-2.35c-1.13-.88-2.44-1.7-3.66-2.77l-3.95-3.37A108.36 108.36 0 0 1 396 411.25a100.22 100.22 0 0 1-7.89-13.56 83 83 0 0 1-6-16.09v.06a30.28 30.28 0 0 1-2.39-14.47 20.91 20.91 0 0 1 2.17-7.41 16.85 16.85 0 0 1 16.24-8.95 12.66 12.66 0 0 1 5.37 1.94 18.51 18.51 0 0 1 4.08 3.82c1.16 1.44 2.17 2.94 3.17 4.44s2 2.92 3.05 4.35c2 2.83 4.17 5.53 6.37 8.06a78 78 0 0 0 13.89 12.84 51.27 51.27 0 0 0 14.7 7.34 41.93 41.93 0 0 0 23.57.73 18.26 18.26 0 0 0 1.91-.58c.58-.21 1.15-.4 1.64-.59 1-.45 1.86-.79 2.51-1.13l1.51-.79.52-.25s-.16.12-.48.31-.85.5-1.48.85-1.51.72-2.5 1.19c-.5.21-1.06.41-1.65.63s-1.23.44-1.9.63a41.94 41.94 0 0 1-23.78-.53 51.79 51.79 0 0 1-14.89-7.33 77.48 77.48 0 0 1-14-12.89 115.17 115.17 0 0 1-6.41-8.09c-1-1.42-2.06-2.87-3.07-4.35s-2-3-3.15-4.38a17.74 17.74 0 0 0-3.94-3.7 12 12 0 0 0-5.08-1.81 15.58 15.58 0 0 0-10.57 2.91c-4.32 2.92-6.61 7.95-7.09 12.85a29.57 29.57 0 0 0 2.34 14.14v.07a83.64 83.64 0 0 0 5.88 16 99.63 99.63 0 0 0 7.83 13.49 109.47 109.47 0 0 0 17 19.47l3.91 3.39c1.21 1.08 2.51 1.92 3.62 2.81l3.17 2.38c1 .74 1.94 1.28 2.76 1.83l3.83 2.48 1 .65a2 2 0 0 1 .33.24Z"/><path d="M393.74 374.47c-.23.07-1-4.44-4.15-9s-7-7-6.81-7.16a8.56 8.56 0 0 1 2.51 1.55 23 23 0 0 1 4.86 5.23 23.67 23.67 0 0 1 3.06 6.44 8.44 8.44 0 0 1 .53 2.94ZM401.84 369.23c-.22 0-.35-4.61-2.82-9.62s-6-8-5.79-8.18a9.08 9.08 0 0 1 2.29 1.94 23.74 23.74 0 0 1 6.23 12.88 8.89 8.89 0 0 1 .09 3Z"/><path fill="#fff" d="M374.78 446c3.26-5-10.16-6.15-16.06-5.47a35.12 35.12 0 0 0-31.1 35.4s25.75 2.71 47.16-29.93Z" opacity=".3"/><path d="M396.81 423.71A55.82 55.82 0 0 0 425.44 446a7.45 7.45 0 0 0 3.9.55 2.85 2.85 0 0 0 2.42-2.72 100.87 100.87 0 0 1-35-31.49 19.65 19.65 0 0 0 1.65 11.82" opacity=".3"/><path fill="#f5f5f5" d="M378.83 335.51a29.47 29.47 0 1 0-41.68 0 29.47 29.47 0 0 0 41.68 0Z"/><path d="M387.46 316c0 14.23-7.46 26.11-15.8 26.11s-15.09-11.52-15.09-25.76 6.76-25.76 15.09-25.76 15.8 11.11 15.8 25.41Z"/><path fill="#fff" d="M364.3 328.13a9.12 9.12 0 0 1-.6-1 18.64 18.64 0 0 1-1.23-2.87 28.61 28.61 0 0 1 .55-20.15 19.38 19.38 0 0 1 1.37-2.78c.38-.63.6-1 .65-.94s-.69 1.46-1.58 3.9a31.51 31.51 0 0 0-.54 19.83c.76 2.47 1.48 3.94 1.37 4ZM375.4 304.82a5 5 0 1 0-5-5 5 5 0 0 0 5 5Z"/><path d="M377.07 278.29c-.56.77-2 .76-3.78.47s-4-.81-6.46-1.2-4.62-.63-6.4-.86-3.11-.6-3.47-1.49.5-2.16 2.49-3.22a11.9 11.9 0 0 1 3.72-1.19 16 16 0 0 1 4.79 0 14.3 14.3 0 0 1 7.63 3.69c1.57 1.57 2 3 1.49 3.77Z"/><path fill="red" fill-opacity=".75" d="M363.72 351.48c-4.52-9.25-1.16-21.6 7.41-27.29s21.27-4 28 3.77"/><path d="M399.18 328s-.63-.58-1.81-1.59a20.85 20.85 0 0 0-5.54-3.38 23 23 0 0 0-9.4-1.82A19.91 19.91 0 0 0 364 333.42a22.53 22.53 0 0 0-2 9.36 21.21 21.21 0 0 0 1 6.42c.48 1.46.84 2.24.77 2.27a2.29 2.29 0 0 1-.31-.55 12.55 12.55 0 0 1-.72-1.64 19.48 19.48 0 0 1-1.2-6.5 22.7 22.7 0 0 1 1.88-9.62 20.29 20.29 0 0 1 19.07-12.65 22.69 22.69 0 0 1 9.6 2 19.66 19.66 0 0 1 5.51 3.63 11.06 11.06 0 0 1 1.25 1.31 2.45 2.45 0 0 1 .33.55ZM305.18 239.86a3.68 3.68 0 0 1-.66.23l-1.95.52c-.85.2-1.89.51-3.08.86l-1.9.57-2.11.71a112.77 112.77 0 0 0-22 10.51 179.3 179.3 0 0 0-19.87 14.2c-2.42 2-4.36 3.6-5.68 4.75-.63.53-1.14 1-1.56 1.3a2.39 2.39 0 0 1-.58.42 3.08 3.08 0 0 1 .49-.53l1.46-1.38c1.27-1.21 3.18-2.89 5.56-4.93a159.25 159.25 0 0 1 19.83-14.42 103.84 103.84 0 0 1 22.19-10.37l2.13-.68 1.93-.53c1.2-.32 2.25-.6 3.11-.75l2-.4a2.82 2.82 0 0 1 .71-.09ZM115.6 80.27s-.23-.54-.53-1.53c-.16-.5-.33-1.11-.49-1.85s-.36-1.55-.5-2.48a45.06 45.06 0 0 1-.6-6.56 50.43 50.43 0 0 1 .55-8A49.25 49.25 0 0 1 116 52a45.15 45.15 0 0 1 2.54-6c.41-.85.85-1.56 1.23-2.2s.64-1.09 1-1.61a7.89 7.89 0 0 1 1-1.3c.11.07-1.19 2-2.8 5.34a50 50 0 0 0-2.4 6 57.38 57.38 0 0 0-1.86 7.77 54.09 54.09 0 0 0-.59 7.94 52.17 52.17 0 0 0 .46 6.49c.51 3.67 1.17 5.9 1 5.94Z"/><path fill="#fff" d="M424.35.26 140.88 53l29.66 159.41L454 159.68Z"/><path d="m454 159.67-.56-2.85-1.58-8.32-6-31.85L424.08.3l.3.21L141 53.33l.27-.39a729303 729303 0 0 0 29.65 159.41l-.37-.25 204-37.78L433 163.51c6.82-1.26 12.06-2.21 15.61-2.86l4-.74 1.39-.23-1.34.27c-.9.17-2.23.44-4 .76l-15.54 2.93-58.47 11-204 38.09-.32.05-.05-.31-29.69-159.42-.06-.34.34-.06L424.3 0h.27l.05.26 21.56 116.56 5.85 31.83 1.52 8.28c.35 1.88.5 2.81.5 2.81Z"/><path d="m262.82 114.09-8.7 1.62L256.2 127l-16.13 3-2.07-11.28-30.93 5.75-2-10.78 19.45-41.41 17.14-3.19-17.47 38.61 11.87-2.21-1.86-10 15.64-2.91 1.85 10 8.7-1.62 2.44 13.12ZM262.81 95.41C259.21 76.11 268 63 283 60.19s27.82 6.33 31.4 25.63-5.21 32.44-20.08 35.21-27.92-6.31-31.51-25.62ZM297.74 89c-2.29-12.29-7-16.17-12.25-15.19s-8.34 6.31-6.06 18.59 7 16.16 12.34 15.17 8.25-6.29 6-18.57ZM378.59 92.55l-8.69 1.62 2.07 11.2-16.13 3-2.08-11.2-30.93 5.83-2-10.78 19.45-41.41 17.14-3.19L340 86.16 351.82 84 350 74l15.62-2.92 1.86 10 8.69-1.62 2.45 13.12ZM268.58 161.25l.54 2.85-16.66 3.09-4.27-23 16.2-3 .53 2.85-12.92 2.44 1.3 7 11.51-2.14.52 2.78-11.5 2.15 1.37 7.41 13.37-2.48ZM289.76 160.25l-6.26-6.12c-.46.11-.94.24-1.43.33l-5.67 1.06 1.29 7-3.28.62-4.27-22.95 9-1.66c6-1.11 10.13 1.23 11.06 6.22a7.37 7.37 0 0 1-3.7 8.18l6.88 6.69-3.57.67Zm-2.88-14.92c-.61-3.28-3.15-4.75-7.34-4l-5.57 1 1.92 10.33 5.57-1c4.19-.71 6-3 5.42-6.33ZM313.59 155.82l-6.26-6.13c-.46.12-.94.25-1.43.34l-5.67 1.06 1.29 7-3.28.62-4.27-23 8.95-1.67c6-1.11 10.13 1.23 11.06 6.23a7.35 7.35 0 0 1-3.7 8.18l6.88 6.69-3.57.67ZM310.71 141c-.61-3.28-3.15-4.73-7.34-4l-5.57 1 1.92 10.33 5.57-1c4.2-.85 6.04-3.15 5.42-6.33ZM318.07 143.12c-1.25-6.72 3-12.7 10-14s13.09 2.72 14.36 9.47-3 12.71-10 14-13.1-2.75-14.36-9.47Zm21.12-3.93a9.07 9.07 0 1 0-7.37 10.5h.18a8.77 8.77 0 0 0 7.27-10.05c0-.17 0-.31-.08-.45ZM365 146.27l-6.27-6.13c-.45.12-.94.25-1.42.34l-5.67 1.06 1.29 7-3.28.61-4.28-23 9-1.66c6-1.11 10.13 1.23 11.06 6.22a7.39 7.39 0 0 1-3.7 8.19l6.88 6.69-3.57.66Zm-2.89-14.93c-.62-3.28-3.15-4.74-7.35-4l-5.57 1 1.92 10.32 5.57-1c4.17-.71 6-3 5.4-6.32Z"/><path fill="#e0e0e0" d="M418.38 17.52a5.9 5.9 0 1 1-6.13-5.68 5.89 5.89 0 0 1 6.13 5.68Z"/><path d="M418.38 17.52a11.51 11.51 0 0 0-.36-1.4 6 6 0 0 0-2.29-3 5.61 5.61 0 1 0 .35 9 5.84 5.84 0 0 0 2-3.18c.22-.89.2-1.42.26-1.42s0 .13.07.38a4.44 4.44 0 0 1-.07 1.09 5.83 5.83 0 0 1-2 3.49 6.14 6.14 0 0 1-5.79 1.19 6.2 6.2 0 0 1-.46-11.67 6.08 6.08 0 0 1 5.87.72 5.88 5.88 0 0 1 2.26 3.28 3.91 3.91 0 0 1 .15 1.08v.4Z"/><path d="M415.09 13.43c.17 0 .39 2.19-.81 4.57s-3.09 3.57-3.17 3.41a27.09 27.09 0 0 0 2.55-3.71c1.08-2.22 1.22-4.29 1.41-4.27Z"/><path d="M416.24 19.69c-.17.1-1-1.47-2.73-2.37s-3.52-.67-3.52-.86.39-.28 1.11-.33a5.36 5.36 0 0 1 2.72.59 5 5 0 0 1 2 1.88c.36.62.44 1.06.36 1.09Z"/><path fill="#e0e0e0" d="m153.45 95.46-14.87 11.85L144 114l14.87-11.86Z"/><path d="M158.81 102.2s-.6-.66-1.57-1.79l-4-4.79h.34c-3.8 3.11-9 7.32-14.81 11.94 0 .43.07-.58.06-.47l.09.1.17.23.36.44.69.88 1.36 1.71 2.59 3.27-.46-.06c4.29-3.38 8-6.27 10.69-8.32l3.17-2.39a11.5 11.5 0 0 1 1.21-.86 7.75 7.75 0 0 1-1 .9l-3 2.51c-2.59 2.15-6.3 5.19-10.67 8.71l-.24.19-.21-.25L141 111c-.44-.56-.9-1.14-1.37-1.71l-.69-.88-.36-.44-.17-.22-.09-.11c0 .1.1-.91 0-.49 5.78-4.6 11-8.75 14.93-11.77l.19-.16.15.2c1.67 2.14 3 3.88 3.87 5a19.4 19.4 0 0 1 1.3 1.82Z"/><path fill="#e0e0e0" d="M135.24 115.87a7.94 7.94 0 0 0 11.15 1.25l-9.9-12.4a7.94 7.94 0 0 0-1.25 11.15Z"/><path d="M135.24 115.87a4.5 4.5 0 0 1-.62-.69 7.79 7.79 0 0 1-1.08-6.38 8.14 8.14 0 0 1 2.77-4.33l.24-.19.19.24 5 6.19c1.78 2.19 3.4 4.3 4.93 6.22l.19.25-.24.19a8.26 8.26 0 0 1-4.84 1.74 7.86 7.86 0 0 1-6-2.48 2.92 2.92 0 0 1-.54-.76 11.43 11.43 0 0 0 2.78 2 7.84 7.84 0 0 0 8.17-1l-.05.44-5-6.18-4.93-6.22h.45a7.75 7.75 0 0 0-2.66 4 7.84 7.84 0 0 0-.13 3.79 12.3 12.3 0 0 0 1.32 3.15Z"/><path fill="#e0e0e0" d="M137.07 111.71a5 5 0 0 0-.83 5.27Z"/><path d="M136.24 117c-.14.12-1-1.12-.68-2.81s1.42-2.61 1.52-2.47a18.07 18.07 0 0 0-.84 2.58c-.24 1.42.2 2.7 0 2.7ZM146.4 112.56c-.17.11-1.3-1.57-2.89-3.46s-3-3.32-2.87-3.48 1.77 1.09 3.4 3 2.52 3.82 2.36 3.9ZM148.16 111.18c-.17.1-1.31-1.57-2.89-3.47s-3-3.32-2.88-3.47 1.78 1.08 3.4 3 2.52 3.82 2.37 3.89ZM149.9 109.78c-.17.1-1.31-1.57-2.89-3.47s-3-3.32-2.88-3.47 1.78 1.08 3.4 3 2.52 3.82 2.37 3.9ZM151.65 108.39c-.17.11-1.31-1.57-2.89-3.46s-3-3.32-2.88-3.48 1.78 1.09 3.4 3 2.52 3.81 2.37 3.89ZM153.4 107c-.17.11-1.31-1.56-2.89-3.46s-3-3.32-2.88-3.48 1.78 1.09 3.4 3 2.52 3.81 2.37 3.89ZM155.14 105.61c-.17.1-1.31-1.57-2.89-3.47s-3-3.31-2.88-3.47 1.78 1.08 3.4 3 2.52 3.82 2.37 3.9ZM156.89 104.21c-.17.1-1.31-1.57-2.89-3.46s-3-3.32-2.88-3.48 1.78 1.08 3.4 3 2.52 3.82 2.37 3.9ZM167.16 66.2c-.06 0-.08-.53-.36-1.41a6 6 0 0 0-2.32-3 5.68 5.68 0 1 0 .37 9.12 6 6 0 0 0 2.06-3.22c.23-.9.2-1.43.27-1.43a1.15 1.15 0 0 1 .06.37 5.26 5.26 0 0 1-.06 1.12 6 6 0 0 1-2 3.54 6.26 6.26 0 1 1-.33-9.9 5.94 5.94 0 0 1 2.29 3.38 4.47 4.47 0 0 1 .15 1.09v.4ZM128.34 80.64a13.73 13.73 0 0 1-.54-1.52c-.19-.61-.35-1.23-.48-1.85s-.37-1.55-.5-2.48a42.44 42.44 0 0 1-.6-6.56 48.2 48.2 0 0 1 .55-8.05 48.93 48.93 0 0 1 1.93-7.83 45 45 0 0 1 2.58-6.07c.4-.85.85-1.56 1.23-2.21s.72-1.17 1-1.6a7 7 0 0 1 1-1.3c.1.07-1.19 2-2.8 5.34a51.81 51.81 0 0 0-2.41 6 55.51 55.51 0 0 0-1.85 7.74 54.09 54.09 0 0 0-.59 7.94 50.32 50.32 0 0 0 .46 6.49c.51 3.67 1.16 5.9 1 5.93ZM473.05 138.1a13.89 13.89 0 0 1 .54 1.53c.15.5.32 1.11.48 1.84s.37 1.56.5 2.49a45.06 45.06 0 0 1 .6 6.56 46.34 46.34 0 0 1-2.49 15.88 43 43 0 0 1-2.57 6.06c-.41.85-.86 1.57-1.23 2.21a16.63 16.63 0 0 1-1 1.61 7 7 0 0 1-1 1.29c-.1-.06 1.19-2 2.8-5.33a50 50 0 0 0 2.4-6 57 57 0 0 0 1.86-7.74 54.06 54.06 0 0 0 .59-7.93 52.17 52.17 0 0 0-.46-6.49c-.51-3.68-1.16-5.9-1-5.94ZM481.55 140.35a15.32 15.32 0 0 1 .53 1.53c.15.53.33 1.11.49 1.84s.36 1.56.49 2.49a43.73 43.73 0 0 1 .61 6.56 51.62 51.62 0 0 1-.55 8 49 49 0 0 1-1.94 7.83 46.08 46.08 0 0 1-2.57 6.06c-.41.85-.85 1.57-1.23 2.21s-.72 1.18-1 1.61a7 7 0 0 1-1 1.29c-.11-.06 1.19-2 2.79-5.33a51.81 51.81 0 0 0 2.41-6 57 57 0 0 0 1.86-7.74 54.05 54.05 0 0 0 .58-7.93 50.46 50.46 0 0 0-.45-6.5c-.51-3.67-1.17-5.89-1-5.93Z"/><path fill="#fafafa" d="M197.27 242.88A55.15 55.15 0 1 0 183.36 256l19 8.4Z"/><path fill="red" fill-opacity=".75" d="M136.33 206.71a10.36 10.36 0 0 1 2.29-5.69 9.8 9.8 0 0 1 4.92-3.44 8 8 0 0 1 6.23.85 8.23 8.23 0 0 1 2.7 2.71 7.89 7.89 0 0 1 2.19-2.68 8 8 0 0 1 6.09-1.57 9.7 9.7 0 0 1 5.29 2.84 10.34 10.34 0 0 1 2.96 5.37 12.44 12.44 0 0 1-1.09 7.71 17.51 17.51 0 0 1-5.7 6c-3.8 2.62-8.82 5.9-8.82 5.9s-4.59-3-8.67-5.17a17.46 17.46 0 0 1-6.37-5.29 12.39 12.39 0 0 1-2-7.53Z"/><path d="M153 154.82h-1c-.63 0-1.64.06-2.82.08a18.09 18.09 0 0 0-2.08.09l-2.49.36-2.9.42-3.24.79a52.84 52.84 0 0 0-15.72 6.85 55.51 55.51 0 0 0-25.46 41.68 60.27 60.27 0 0 0-.16 7.6c.09 1.28.07 2.58.25 3.88s.39 2.6.59 3.91A55.76 55.76 0 0 0 103.3 236a59.74 59.74 0 0 0 10.1 13.89 58.79 58.79 0 0 0 14.6 10.38 52.62 52.62 0 0 0 17.74 5.44 37.57 37.57 0 0 0 4.73.4 42.37 42.37 0 0 0 4.78.09 55.93 55.93 0 0 0 28.62-9.2l-.58.05 19.43 7.79 1.15.46-.33-1.19c-2-7.12-3.87-14.06-5.71-20.77l-.09.51a55.63 55.63 0 0 0 10.36-23.72 50 50 0 0 0 .76-12.15 39.53 39.53 0 0 0-.55-5.85c-.14-1-.3-1.89-.44-2.83s-.46-1.85-.68-2.75A55.56 55.56 0 0 0 185.51 165a52 52 0 0 0-12.9-6.79l-2.9-1c-1-.25-1.88-.47-2.76-.71l-2.52-.62c-.81-.16-1.6-.24-2.33-.36-1.46-.18-2.76-.44-3.89-.49l-2.85-.1h-1.74a2.91 2.91 0 0 0-.59 0 2.33 2.33 0 0 0 .59.08l1.74.14 2.83.2c1.13.09 2.41.37 3.86.59a55.19 55.19 0 0 1 44.17 41c.21.89.49 1.78.66 2.7s.27 1.86.41 2.8a36.88 36.88 0 0 1 .51 5.74A49.75 49.75 0 0 1 207 220a54.66 54.66 0 0 1-10.22 23.21l-.17.24.08.29 5.67 20.76.82-.73-19.41-7.77-.3-.12-.28.18a54.83 54.83 0 0 1-28 9 43 43 0 0 1-4.68-.07 35.86 35.86 0 0 1-4.63-.4 51.5 51.5 0 0 1-17.34-5.3A57.44 57.44 0 0 1 114.29 249a58.07 58.07 0 0 1-9.92-13.58 54 54 0 0 1-5.22-15.12l-.59-3.83c-.2-1.27-.17-2.55-.26-3.82a54.7 54.7 0 0 1 24.93-48.62 52.93 52.93 0 0 1 15.46-7l3.21-.85 2.87-.47 2.46-.41c.76-.08 1.45-.1 2.07-.16l2.81-.21a5.57 5.57 0 0 0 1-.11Z"/></svg>