<svg xmlns="http://www.w3.org/2000/svg" width="63" height="56" viewBox="0 0 63 56"><path d="M24.39,50.68A5.58,5.58,0,0,1,24,52.81a5.14,5.14,0,0,1-1.2,1.68,5.45,5.45,0,0,1-1.85,1.13,6.61,6.61,0,0,1-2.3.38,7,7,0,0,1-2.31-.39,5.37,5.37,0,0,1-1.83-1.13,4.94,4.94,0,0,1-1.22-1.7,5.29,5.29,0,0,1-.41-2.11,4.25,4.25,0,0,1,.46-2,5.18,5.18,0,0,1,1.28-1.57,6.45,6.45,0,0,1,1.85-1,6.43,6.43,0,0,1,6.19,1A4.89,4.89,0,0,1,23.9,48.7a4.28,4.28,0,0,1,.48,2Zm-8.73,0a2.85,2.85,0,0,0,.4,1.47,2.72,2.72,0,0,0,1.07,1,3.24,3.24,0,0,0,3,0,3.17,3.17,0,0,0,1.06-1,2.76,2.76,0,0,0,.4-1.47,2.09,2.09,0,0,0-.4-1.22,3,3,0,0,0-1.08-1,3.1,3.1,0,0,0-1.47-.36,3.23,3.23,0,0,0-1.47.36,2.6,2.6,0,0,0-1.07,1,2.15,2.15,0,0,0-.4,1.24ZM56,48.29h2.66a1.89,1.89,0,0,1,1.23.44,1.41,1.41,0,0,1,0,2.17,1.9,1.9,0,0,1-1.23.45H56Zm7,1.54a3.67,3.67,0,0,0-1.3-2.75,4.71,4.71,0,0,0-3.12-1.14H53.33v9.8H56v-2h2.55l.77,2H62l-1-2.68a4.09,4.09,0,0,0,1.46-1.4A3.53,3.53,0,0,0,63,49.85ZM8.67,52.08a2.88,2.88,0,0,1-1.16,1.16,3.33,3.33,0,0,1-1.7.43,3.38,3.38,0,0,1-2.25-.82,2.58,2.58,0,0,1,0-4,3.44,3.44,0,0,1,2.25-.82,3.43,3.43,0,0,1,1.7.42,2.9,2.9,0,0,1,1.16,1.17h2.86a5.22,5.22,0,0,0-2.34-3,6.47,6.47,0,0,0-4-.89,6.15,6.15,0,0,0-3.68,1.69,4.69,4.69,0,0,0,0,6.84A6.1,6.1,0,0,0,5.16,56a6.54,6.54,0,0,0,4-.89,5.25,5.25,0,0,0,2.34-3Zm28.22,1.28V46H34.21v9.81h7.26V53.36Zm9.56-1.13,1-2.59,1,2.59Zm3.29,3.53h2.71L48.8,46H46.12l-3.65,9.79h2.69l.42-1.28h3.69Zm-21.48-2.4V46H25.58v9.81h7.24V53.36Z" fill="red"/><path d="M31.81,39.79a20.88,20.88,0,0,1-14.19-6A19.64,19.64,0,0,1,11.72,20a12.88,12.88,0,0,1,.09-1.86,16.55,16.55,0,0,1,3.7-5.52A16.78,16.78,0,0,1,21,9,17,17,0,0,1,27.39,7.8h.54a13.16,13.16,0,0,0-5.4,3.42,12.82,12.82,0,0,0-3.09,5.5v.17A18.58,18.58,0,0,0,21,30.69a19.52,19.52,0,0,0,10.81,9.09Zm18.41-29.5a19.52,19.52,0,0,1-2.69,22.85A20.48,20.48,0,0,1,40.82,38a17.34,17.34,0,0,1-9.76-1.49,16.62,16.62,0,0,1-7.23-6.55c-.09-.16-.18-.31-.26-.47a13.31,13.31,0,0,0,8.65,3.21,13.69,13.69,0,0,0,3.55-.48H36A19.53,19.53,0,0,0,47.51,24,18.55,18.55,0,0,0,50.22,10.29ZM32.22,0A20.81,20.81,0,0,1,44.08,3.67a15.9,15.9,0,0,1,1.35,18.24l-.29.45a12.33,12.33,0,0,0,.25-2.5,12.47,12.47,0,0,0-1-4.89,13,13,0,0,0-2.86-4.15l-.23-.23a20.08,20.08,0,0,0-26.62-1,20.16,20.16,0,0,1,7.47-7A21,21,0,0,1,32.22,0Z" fill="#96dcff" fill-rule="evenodd"/></svg>
