<svg xmlns="http://www.w3.org/2000/svg" xmlns:xlink="http://www.w3.org/1999/xlink" width="32" height="32" viewBox="0 0 32 32"><defs><clipPath id="a"><rect width="32" height="32" fill="none"/></clipPath></defs><g clip-path="url(#a)"><path d="M28.26,20.29a12.81,12.81,0,0,0,0-8.58.94.94,0,0,0-.06-.15,13,13,0,0,0-24.4,0,1.15,1.15,0,0,0-.06.17,12.75,12.75,0,0,0,0,8.56,1.15,1.15,0,0,0,.06.17,13,13,0,0,0,24.4,0A.94.94,0,0,0,28.26,20.29ZM16,27a14.94,14.94,0,0,1-3.29-6h6.57A15.14,15.14,0,0,1,16,27Zm-3.76-8a18.13,18.13,0,0,1,0-6h7.5a18.12,18.12,0,0,1,0,6ZM5,16a10.66,10.66,0,0,1,.43-3h4.81a18.87,18.87,0,0,0,0,6H5.43A10.66,10.66,0,0,1,5,16ZM16,5a14.94,14.94,0,0,1,3.29,6H12.71A15.14,15.14,0,0,1,16,5Zm5.77,8h4.81a10.68,10.68,0,0,1,0,6H21.76a18.87,18.87,0,0,0,0-6Zm4-2H21.36a17.73,17.73,0,0,0-2.54-5.62A11.05,11.05,0,0,1,25.79,11ZM13.18,5.38A17.73,17.73,0,0,0,10.64,11H6.21A11.05,11.05,0,0,1,13.18,5.38ZM6.21,21h4.43a17.73,17.73,0,0,0,2.54,5.62A11.05,11.05,0,0,1,6.21,21Zm12.61,5.62A17.73,17.73,0,0,0,21.36,21h4.43A11.05,11.05,0,0,1,18.82,26.62Z"/></g></svg>