<svg xmlns="http://www.w3.org/2000/svg" viewBox="0 0 24 24"><path d="M12.6,16.76,11,18.26l-.58.55a.94.94,0,0,1-.68.26c0-.27,0-.54.05-.81.07-1.06.15-2.12.23-3.18a.51.51,0,0,1,.15-.31l7.36-6.61a2.61,2.61,0,0,0,.23-.24.15.15,0,0,0,.05-.15s-.11-.1-.16-.08a2.67,2.67,0,0,0-.54.19c-.82.5-1.63,1-2.45,1.53L7.92,13.66a.43.43,0,0,1-.38.05L3.75,12.53a2.91,2.91,0,0,1-.48-.21c-.33-.21-.37-.52-.06-.76a2.52,2.52,0,0,1,.68-.38L7.83,9.67,19.68,5.13l.22-.08a.79.79,0,0,1,1.1.79,5.85,5.85,0,0,1-.16,1.09q-1.28,6-2.57,12a2.46,2.46,0,0,1-.23.66.67.67,0,0,1-.84.35,1.78,1.78,0,0,1-.58-.26c-1.29-.93-2.56-1.87-3.85-2.81Z"/></svg>