<svg xmlns="http://www.w3.org/2000/svg" viewBox="0 0 24 24"><path fill-rule="evenodd" d="M18.4 5.63A8.92 8.92 0 0 0 12.05 3a9 9 0 0 0-7.78 13.46L3 21.13l4.76-1.25a8.98 8.98 0 0 0 4.29 1.09 8.99 8.99 0 0 0 8.98-8.98 8.93 8.93 0 0 0-2.63-6.35m-6.35 13.82a7.45 7.45 0 0 1-3.8-1.05l-.27-.16-2.82.74.75-2.75-.18-.28a7.45 7.45 0 0 1-1.14-3.97 7.47 7.47 0 0 1 7.47-7.46 7.41 7.41 0 0 1 5.27 2.18 7.42 7.42 0 0 1 2.18 5.28 7.47 7.47 0 0 1-7.46 7.46m4.1-5.58c-.23-.12-1.33-.66-1.54-.73-.2-.08-.35-.12-.5.1s-.58.74-.71.89-.26.16-.49.05-.94-.35-1.8-1.11c-.67-.6-1.12-1.33-1.25-1.55s-.01-.35.1-.46c.1-.1.22-.26.34-.4.1-.13.14-.22.22-.37s.04-.28-.02-.4c-.06-.1-.5-1.2-.7-1.66-.17-.43-.36-.38-.5-.38a9.65 9.65 0 0 0-.42 0 .83.83 0 0 0-.6.27c-.21.23-.79.77-.79 1.87s.8 2.17.92 2.32c.1.15 1.58 2.42 3.83 3.39.54.23.95.37 1.28.47a3.2 3.2 0 0 0 1.41.1c.43-.07 1.33-.55 1.52-1.07.18-.53.18-.98.13-1.07-.06-.1-.21-.15-.43-.26" clip-rule="evenodd"/></svg>